<svg id="visual" viewBox="0 0 900 600" width="900" height="600" xmlns="http://www.w3.org/2000/svg" xmlns:xlink="http://www.w3.org/1999/xlink" version="1.1"><rect x="0" y="0" width="900" height="600" fill="#0A0B0D"></rect><path d="M0 397L21.5 400.3C43 403.7 86 410.3 128.8 414.3C171.7 418.3 214.3 419.7 257.2 418.2C300 416.7 343 412.3 385.8 405.5C428.7 398.7 471.3 389.3 514.2 386.2C557 383 600 386 642.8 384C685.7 382 728.3 375 771.2 372.5C814 370 857 372 878.5 373L900 374L900 601L878.5 601C857 601 814 601 771.2 601C728.3 601 685.7 601 642.8 601C600 601 557 601 514.2 601C471.3 601 428.7 601 385.8 601C343 601 300 601 257.2 601C214.3 601 171.7 601 128.8 601C86 601 43 601 21.5 601L0 601Z" fill="#213140"></path><path d="M0 404L21.5 413.2C43 422.3 86 440.7 128.8 445.2C171.7 449.7 214.3 440.3 257.2 435.8C300 431.3 343 431.7 385.8 430C428.7 428.3 471.3 424.7 514.2 419.5C557 414.3 600 407.7 642.8 409.2C685.7 410.7 728.3 420.3 771.2 422.3C814 424.3 857 418.7 878.5 415.8L900 413L900 601L878.5 601C857 601 814 601 771.2 601C728.3 601 685.7 601 642.8 601C600 601 557 601 514.2 601C471.3 601 428.7 601 385.8 601C343 601 300 601 257.2 601C214.3 601 171.7 601 128.8 601C86 601 43 601 21.5 601L0 601Z" fill="#3b5264"></path><path d="M0 452L21.5 457.8C43 463.7 86 475.3 128.8 477C171.7 478.7 214.3 470.3 257.2 470C300 469.7 343 477.3 385.8 478.5C428.7 479.7 471.3 474.3 514.2 468.7C557 463 600 457 642.8 454.8C685.7 452.7 728.3 454.3 771.2 460.7C814 467 857 478 878.5 483.5L900 489L900 601L878.5 601C857 601 814 601 771.2 601C728.3 601 685.7 601 642.8 601C600 601 557 601 514.2 601C471.3 601 428.7 601 385.8 601C343 601 300 601 257.2 601C214.3 601 171.7 601 128.8 601C86 601 43 601 21.5 601L0 601Z" fill="#57768a"></path><path d="M0 508L21.5 512C43 516 86 524 128.8 527.7C171.7 531.3 214.3 530.7 257.2 528.2C300 525.7 343 521.3 385.8 517.7C428.7 514 471.3 511 514.2 506.5C557 502 600 496 642.8 497.7C685.7 499.3 728.3 508.7 771.2 509.2C814 509.7 857 501.3 878.5 497.2L900 493L900 601L878.5 601C857 601 814 601 771.2 601C728.3 601 685.7 601 642.8 601C600 601 557 601 514.2 601C471.3 601 428.7 601 385.8 601C343 601 300 601 257.2 601C214.3 601 171.7 601 128.8 601C86 601 43 601 21.5 601L0 601Z" fill="#739cb1"></path><path d="M0 556L21.5 557.8C43 559.7 86 563.3 128.8 561C171.7 558.7 214.3 550.3 257.2 547.2C300 544 343 546 385.8 544.3C428.7 542.7 471.3 537.3 514.2 538.7C557 540 600 548 642.8 551.7C685.7 555.3 728.3 554.7 771.2 556.7C814 558.7 857 563.3 878.5 565.7L900 568L900 601L878.5 601C857 601 814 601 771.2 601C728.3 601 685.7 601 642.8 601C600 601 557 601 514.2 601C471.3 601 428.7 601 385.8 601C343 601 300 601 257.2 601C214.3 601 171.7 601 128.8 601C86 601 43 601 21.5 601L0 601Z" fill="#91c4d9"></path></svg>